<?xml version="1.0" encoding="UTF-8"?>
<svg version="1.1" xmlns="http://www.w3.org/2000/svg" width="1080" height="1080">
<path d="M0 0 C15.84 0 31.68 0 48 0 C48 16.83 48 33.66 48 51 C73.74 51 99.48 51 126 51 C126.33 56.61 126.66 62.22 127 68 C128.11375 66.5459375 128.11375 66.5459375 129.25 65.0625 C138.96377227 53.8437771 151.028477 48.06297366 165.68359375 46.76171875 C177.10976996 46.45377925 188.07325917 49.32757667 198 55 C197.37731177 59.9686226 195.20925659 63.96389238 192.96484375 68.36328125 C192.56672989 69.15526413 192.16861603 69.94724701 191.75843811 70.76322937 C190.4904151 73.28253463 189.21409467 75.79752917 187.9375 78.3125 C187.0743184 80.02381053 186.21168191 81.73539613 185.34960938 83.44726562 C183.23937598 87.63472401 181.12169302 91.81833708 179 96 C175.8525253 96 175.06125915 95.62585597 172.4375 94.125 C164.50531186 90.02815558 154.86876221 88.50245378 146.16796875 90.72265625 C138.14017049 93.37709557 134.13596709 96.57261198 130.25 104.125 C127.72262886 109.38769054 126.84182441 113.59925288 126.79467773 119.40893555 C126.78477814 120.16039856 126.77487854 120.91186157 126.76467896 121.68609619 C126.73309504 124.16960501 126.70831884 126.65313296 126.68359375 129.13671875 C126.66302154 130.85879513 126.64202499 132.5808665 126.62062073 134.30293274 C126.56542766 138.83533666 126.51600618 143.36778594 126.46777344 147.90026855 C126.41753824 152.52535031 126.36186271 157.1503662 126.30664062 161.77539062 C126.19909287 170.85020414 126.09764036 179.92507486 126 189 C125.36852554 188.99333817 124.73705109 188.98667633 124.08644104 188.97981262 C117.48354205 188.91317735 110.8807394 188.86808275 104.27758789 188.83520508 C101.81693641 188.8201666 99.35631151 188.79973058 96.89575195 188.77368164 C93.34840308 188.73708144 89.80141023 188.72022365 86.25390625 188.70703125 C85.1629213 188.69154739 84.07193634 188.67606354 82.94789124 188.66011047 C77.12943959 188.65884325 72.31111619 189.16061225 66.87211609 191.28843689 C55.70304797 195.53363135 36.82521963 194.77318336 26 190 C13.75104997 184.15763305 7.66845943 175.56079216 3 163 C-1.26144103 148.56027535 -0.35479284 133.44408565 -0.20599365 118.5512085 C-0.17485958 115.09799778 -0.16150942 111.64471797 -0.14648438 108.19140625 C-0.11370114 101.46073871 -0.06207148 94.73045855 0 88 C-6.6 88 -13.2 88 -20 88 C-20 75.79 -20 63.58 -20 51 C-13.4 51 -6.8 51 0 51 C0 34.17 0 17.34 0 0 Z M48 88 C47.95380245 94.04674579 47.91406352 100.09286604 47.89013672 106.13964844 C47.88015002 108.19175301 47.86655599 110.24384363 47.84912109 112.29589844 C46.99971512 130.23873119 46.99971512 130.23873119 51.6875 147.1875 C54.88047877 149.69010498 56.95455472 150 61 150 C63.4656926 149.19497921 65.65106067 148.12929775 68 147 C68.99 147 69.98 147 71 147 C73.475 155.415 73.475 155.415 76 164 C76.33 164 76.66 164 77 164 C77 138.92 77 113.84 77 88 C67.43 88 57.86 88 48 88 Z " fill="#034A64" transform="translate(201,437)"/>
<path d="M0 0 C0.99 0.86625 1.98 1.7325 3 2.625 C3 3.285 3 3.945 3 4.625 C3.99 4.955 4.98 5.285 6 5.625 C20.08729314 21.86369984 25.3303262 42.41803534 24 63.625 C22.06775535 65.55724465 19.16389611 64.74518438 16.59291077 64.74942017 C15.67078293 64.74582489 14.74865509 64.74222961 13.79858398 64.73852539 C12.34995972 64.73874443 12.34995972 64.73874443 10.87207031 64.7389679 C7.66338901 64.73826834 4.45476497 64.73047397 1.24609375 64.72265625 C-0.97208118 64.72079222 -3.19025652 64.71936825 -5.40843201 64.71836853 C-11.25940071 64.71454216 -17.11034477 64.70471086 -22.96130371 64.69366455 C-28.92667304 64.68345299 -34.89204633 64.67887146 -40.85742188 64.67382812 C-52.57162544 64.66308869 -64.28581067 64.64601085 -76 64.625 C-75.54497614 66.55348823 -75.0826281 68.48024933 -74.6171875 70.40625 C-74.36050293 71.47939453 -74.10381836 72.55253906 -73.83935547 73.65820312 C-72.17836634 79.52915715 -69.0111541 83.2842306 -64 86.625 C-53.26546266 92.11936246 -43.75331104 92.92808686 -32.06640625 89.80859375 C-26.67852523 87.72894031 -22.4244714 84.26662654 -18 80.625 C-16.35 79.305 -14.7 77.985 -13 76.625 C-1.78 82.235 9.44 87.845 21 93.625 C18.3542261 104.2080956 7.66808509 113.12190741 -1.1875 118.8125 C-21.35376162 130.63410164 -45.69100525 133.83886387 -68.625 129.5 C-81.17883656 126.20918848 -91.04321199 120.78630165 -101 112.625 C-101.84820313 111.97273437 -102.69640625 111.32046875 -103.5703125 110.6484375 C-115.6202081 100.61331544 -124.29396822 84.16148355 -126 68.625 C-127.60803657 46.58894336 -123.56349892 28.08257192 -108.9453125 10.82421875 C-108.30335938 10.09847656 -107.66140625 9.37273437 -107 8.625 C-106.48179687 8.01269531 -105.96359375 7.40039062 -105.4296875 6.76953125 C-78.76854701 -22.50413306 -30.64098497 -21.85580746 0 0 Z M-69.45703125 23.73828125 C-72.49972868 27.45884545 -75 32.74928083 -75 37.625 C-58.17 37.625 -41.34 37.625 -24 37.625 C-26.04001628 28.44492673 -27.51482719 24.48856418 -34.96875 19.23828125 C-46.06113315 13.34027902 -60.29820776 15.41779401 -69.45703125 23.73828125 Z " fill="#034A64" transform="translate(814,499.375)"/>
<path d="M0 0 C18.81 0 37.62 0 57 0 C65.03449656 16.06899313 65.03449656 16.06899313 67.83203125 22.46875 C68.30995369 23.54984039 68.30995369 23.54984039 68.79753113 24.652771 C69.46550831 26.16456293 70.13203632 27.67699599 70.79711914 29.19006348 C72.5311573 33.13490648 74.27605317 37.07494736 76.01953125 41.015625 C76.36122345 41.78872009 76.70291565 42.56181519 77.05496216 43.3583374 C81.29352804 52.94030558 85.63594379 62.47460807 90 72 C95.62367908 60.05541572 101.07453325 48.03568265 106.5 36 C108.13430974 32.37449932 109.76991536 28.74958714 111.40625 25.125 C111.76376343 24.33077637 112.12127686 23.53655273 112.48962402 22.71826172 C115.92407225 15.11128224 119.46935896 7.56565938 123 0 C141.81 0 160.62 0 180 0 C178.46230769 4.61307694 176.7893377 8.58607448 174.5078125 12.8125 C174.16616562 13.45404022 173.82451874 14.09558044 173.47251892 14.75656128 C172.36125712 16.84019086 171.24326544 18.9201221 170.125 21 C169.34530766 22.45832821 168.56593228 23.91682593 167.78686523 25.37548828 C163.13129778 34.08110356 158.42216544 42.75666154 153.67041016 51.41015625 C149.02598784 59.89386326 144.51488449 68.44693988 140 77 C133.576531 89.16660471 127.08274227 101.28920355 120.45605469 113.34667969 C117.71019097 118.35037634 114.98168785 123.36355522 112.25 128.375 C110.5175 131.55125 108.785 134.7275 107 138 C95.78 138 84.56 138 73 138 C69.225625 130.884375 69.225625 130.884375 65.375 123.625 C58.77756583 111.19848211 52.13688253 98.79650463 45.45703125 86.4140625 C41.8128884 79.6577988 38.18622772 72.89223062 34.5625 66.125 C33.94189697 64.96629395 33.32129395 63.80758789 32.68188477 62.61376953 C29.82160039 57.27254687 26.96256494 51.93066168 24.10620117 46.58734131 C22.82489646 44.19068596 21.54303041 41.7943312 20.26098633 39.39807129 C19.32274032 37.64414295 18.38500017 35.88994403 17.44726562 34.13574219 C14.45599245 28.5489594 11.44554226 22.9741454 8.390625 17.421875 C7.82819092 16.39884277 7.26575684 15.37581055 6.6862793 14.32177734 C5.62912565 12.40329222 4.56827665 10.48683723 3.50317383 8.57275391 C3.03935303 7.73147949 2.57553223 6.89020508 2.09765625 6.0234375 C1.48676147 4.92394775 1.48676147 4.92394775 0.86352539 3.80224609 C0 2 0 2 0 0 Z " fill="#034A64" transform="translate(528,488)"/>
<path d="M0 0 C15.84 0 31.68 0 48 0 C48 76.23 48 152.46 48 231 C32.16 231 16.32 231 0 231 C0 154.77 0 78.54 0 0 Z " fill="#034A64" transform="translate(839,395)"/>
<path d="M0 0 C0.33 0 0.66 0 1 0 C1.72449636 29.61146681 -1.08998236 57.86219579 -16 84 C-16.49242187 84.86882812 -16.98484375 85.73765625 -17.4921875 86.6328125 C-25.97108741 100.38108524 -38.32311323 108.90120546 -53.8125 112.6875 C-69.23727808 114.19973315 -83.78326482 111.94240109 -96.24609375 102.25390625 C-105.0298298 94.26718217 -109.22850036 83.44248477 -110.1796875 71.80078125 C-110.71151896 55.34355227 -104.19378239 40.99136442 -94.75 27.875 C-88.57061234 21.41473108 -81.87576085 16.66423672 -73.9375 12.625 C-72.96526489 12.12444092 -72.96526489 12.12444092 -71.97338867 11.61376953 C-58.92907427 5.24789536 -41.59666358 4.61592154 -27.75 8.6875 C-21.16106661 11.11727728 -14.84581389 14.10279074 -9 18 C-9.5551549 24.18240688 -11.50927097 29.351681 -13.875 35.0625 C-14.22691406 35.93455078 -14.57882812 36.80660156 -14.94140625 37.70507812 C-16.788053 42.23931669 -18.73379556 46.6600047 -21 51 C-25.03515587 49.61291517 -28.32676969 47.58484505 -31.83984375 45.21875 C-39.08763638 41.12957947 -47.66880354 40.6262217 -55.66796875 42.6875 C-61.66355198 45.09778472 -65.32739917 48.43611907 -68.10546875 54.35546875 C-69.80869961 59.39078443 -69.95455029 65.04414826 -68.3125 70.12890625 C-66.08664661 74.42294842 -63.28692218 76.89698157 -59 79 C-51.73540539 81.18505385 -45.66012144 79.22947065 -39 76 C-36.05685185 73.91690066 -36.05685185 73.91690066 -34 72 C-33.34 72 -32.68 72 -32 72 C-31.73445313 71.41863281 -31.46890625 70.83726562 -31.1953125 70.23828125 C-29.96238292 67.92956017 -28.56558091 66.18081284 -26.875 64.1875 C-12.54088751 45.8766358 -6.36389125 21.94517992 0 0 Z " fill="#FC721C" transform="translate(503,461)"/>
<path d="M0 0 C3.6922392 1.2307464 4.22977599 2.77008764 5.95703125 6.11499023 C14.58080441 23.76828993 17.15244111 41.82474892 10.81347656 60.78369141 C-0.04080142 90.356061 -22.95197696 120.05580635 -49 138 C-51.89215541 136.68151159 -54.04619975 135.23598182 -56.35546875 133.05859375 C-56.97341309 132.47956299 -57.59135742 131.90053223 -58.22802734 131.30395508 C-59.19796631 130.38005981 -59.19796631 130.38005981 -60.1875 129.4375 C-61.19224365 128.48750122 -61.19224365 128.48750122 -62.21728516 127.51831055 C-64.15056685 125.68475237 -66.07630496 123.84360651 -68 122 C-68.88042969 121.16210938 -69.76085937 120.32421875 -70.66796875 119.4609375 C-76.26026944 114.01710497 -81.20462481 108.15223882 -86 102 C-86.78503906 100.99710938 -87.57007813 99.99421875 -88.37890625 98.9609375 C-89.12011719 97.98382812 -89.86132812 97.00671875 -90.625 96 C-91.63433594 94.6696875 -91.63433594 94.6696875 -92.6640625 93.3125 C-93.32535156 92.1678125 -93.32535156 92.1678125 -94 91 C-93.67 90.01 -93.34 89.02 -93 88 C-92.05382812 88.28875 -91.10765625 88.5775 -90.1328125 88.875 C-73.02201148 93.79665513 -55.43356616 94.16874887 -39.375 85.49609375 C-28.18360931 78.44625389 -21.81258812 68.07368599 -17 56 C-16.52820313 54.83210937 -16.52820313 54.83210937 -16.046875 53.640625 C-15.38107884 51.9814187 -14.7210748 50.31987831 -14.06640625 48.65625 C-12.92447808 45.81188679 -11.71137376 43.00292525 -10.5 40.1875 C-5.10032987 27.14242537 -2.44216474 13.84220545 0 0 Z " fill="#FC721C" transform="translate(506,493)"/>
<path d="M0 0 C2.45241515 2.19390691 3.64428827 4.08275517 4.80932617 7.1484375 C5.12943161 7.97939941 5.44953705 8.81036133 5.77934265 9.66650391 C6.11383926 10.56030762 6.44833588 11.45411133 6.79296875 12.375 C7.14386063 13.29587402 7.4947525 14.21674805 7.85627747 15.16552734 C8.59548248 17.11083516 9.33071528 19.05765638 10.06225586 21.00585938 C11.18455135 23.99215399 12.32073702 26.97287916 13.45898438 29.953125 C14.17530879 31.84343583 14.89083102 33.73405087 15.60546875 35.625 C15.94603806 36.51880371 16.28660736 37.41260742 16.63749695 38.33349609 C17.10347038 39.57993896 17.10347038 39.57993896 17.57885742 40.8515625 C17.85404709 41.58197754 18.12923676 42.31239258 18.4127655 43.06494141 C19 45 19 45 19 48 C14.05 47.67 9.1 47.34 4 47 C2.23429182 40.01742673 0.53971155 33.03543422 -1 26 C-1.176521 26.57032959 -1.35304199 27.14065918 -1.53491211 27.72827148 C-2.33255199 30.2990273 -3.13495994 32.86826993 -3.9375 35.4375 C-4.35418945 36.78424805 -4.35418945 36.78424805 -4.77929688 38.15820312 C-5.04677734 39.01220703 -5.31425781 39.86621094 -5.58984375 40.74609375 C-5.83597412 41.53685303 -6.08210449 42.3276123 -6.33569336 43.14233398 C-7 45 -7 45 -8 46 C-10.35313555 46.07271741 -12.70833668 46.08370868 -15.0625 46.0625 C-16.35285156 46.05347656 -17.64320313 46.04445313 -18.97265625 46.03515625 C-19.97167969 46.02355469 -20.97070312 46.01195312 -22 46 C-23 43 -23 43 -22.18652344 40.86547852 C-21.74856445 40.04490967 -21.31060547 39.22434082 -20.859375 38.37890625 C-20.37049805 37.45215088 -19.88162109 36.52539551 -19.37792969 35.57055664 C-18.57210449 34.0815686 -18.57210449 34.0815686 -17.75 32.5625 C-17.21020508 31.54728271 -16.67041016 30.53206543 -16.11425781 29.48608398 C-10.84128512 19.60425062 -5.45036228 9.78499188 0 0 Z " fill="#FC721C" transform="translate(505,422)"/>
</svg>
